<?xml version="1.0" encoding="UTF-8"?>
<!--Generator: Apple Native CoreSVG 175.5-->
<!DOCTYPE svg
PUBLIC "-//W3C//DTD SVG 1.1//EN"
       "http://www.w3.org/Graphics/SVG/1.1/DTD/svg11.dtd">
<svg version="1.1" xmlns="http://www.w3.org/2000/svg" xmlns:xlink="http://www.w3.org/1999/xlink" width="36.2695" height="29.6289">
 <g>
  <rect height="29.6289" opacity="0" width="36.2695" x="0" y="0"/>
  <path d="M36.2695 14.8047C36.2695 14.3164 36.0742 13.8672 35.6836 13.4961L22.7344 0.585938C22.3047 0.15625 21.8945 0 21.4258 0C20.4688 0 19.7266 0.703125 19.7266 1.67969C19.7266 2.14844 19.8828 2.59766 20.1953 2.91016L24.5703 7.36328L32.3242 14.4336L32.7148 13.457L26.4258 13.0664L1.71875 13.0664C0.703125 13.0664 0 13.7891 0 14.8047C0 15.8203 0.703125 16.543 1.71875 16.543L26.4258 16.543L32.7148 16.1523L32.3242 15.1953L24.5703 22.2461L20.1953 26.6992C19.8828 26.9922 19.7266 27.4609 19.7266 27.9297C19.7266 28.9062 20.4688 29.6094 21.4258 29.6094C21.8945 29.6094 22.3047 29.4336 22.6953 29.0625L35.6836 16.1133C36.0742 15.7422 36.2695 15.293 36.2695 14.8047Z" fill="#ffffff" fill-opacity="0.85"/>
 </g>
</svg>
