<svg width="43" height="43" viewBox="0 0 43 43" fill="none" xmlns="http://www.w3.org/2000/svg">
<path d="M21.1328 31.1719C26.5625 31.1719 31.0742 26.6602 31.0742 21.2109C31.0742 15.7422 26.5625 11.2305 21.1328 11.2305C15.6836 11.2305 11.1719 15.7422 11.1719 21.2109C11.1719 26.6602 15.6836 31.1719 21.1328 31.1719ZM21.1328 28.1836C17.3047 28.1836 14.1406 25.0195 14.1406 21.2109C14.1406 17.3828 17.3047 14.2188 21.1328 14.2188C24.9414 14.2188 28.1055 17.3828 28.1055 21.2109C28.1055 25.0195 24.9414 28.1836 21.1328 28.1836ZM22.8516 1.71875C22.8516 0.78125 22.0703 0 21.1328 0C20.2148 0 19.4336 0.78125 19.4336 1.71875V5.82031C19.4336 6.73828 20.2148 7.51953 21.1328 7.51953C22.0703 7.51953 22.8516 6.73828 22.8516 5.82031V1.71875ZM30.7812 9.16016C30.1367 9.82422 30.1367 10.8984 30.7812 11.5625C31.4453 12.207 32.5391 12.2266 33.2031 11.5625L36.1133 8.65234C36.7773 7.98828 36.7773 6.875 36.1133 6.23047C35.4688 5.56641 34.375 5.56641 33.7305 6.23047L30.7812 9.16016ZM40.5664 22.9102C41.5039 22.9102 42.2852 22.1289 42.2852 21.2109C42.2852 20.293 41.5039 19.5117 40.5664 19.5117H36.4844C35.5664 19.5117 34.7852 20.293 34.7852 21.2109C34.7852 22.1289 35.5664 22.9102 36.4844 22.9102H40.5664ZM33.1836 30.8789C32.5391 30.2148 31.4453 30.2148 30.7812 30.8789C30.1367 31.5234 30.1367 32.6172 30.7812 33.2812L33.7305 36.2109C34.375 36.8555 35.4688 36.8359 36.1133 36.1914C36.7773 35.5273 36.7773 34.4336 36.1133 33.7891L33.1836 30.8789ZM22.8516 36.6016C22.8516 35.6641 22.0703 34.8828 21.1328 34.8828C20.2148 34.8828 19.4336 35.6641 19.4336 36.6016V40.7031C19.4336 41.6211 20.2148 42.4023 21.1328 42.4023C22.0703 42.4023 22.8516 41.6211 22.8516 40.7031V36.6016ZM6.15234 33.7695C5.50781 34.4141 5.50781 35.5078 6.13281 36.1719C6.77734 36.8164 7.89062 36.8359 8.55469 36.1914L11.4648 33.2812C12.1289 32.6367 12.1289 31.543 11.4844 30.8789C10.8398 30.2344 9.72656 30.2344 9.0625 30.8789L6.15234 33.7695ZM1.69922 19.5117C0.78125 19.5117 0 20.293 0 21.2109C0 22.1289 0.78125 22.9102 1.69922 22.9102H5.78125C6.71875 22.9102 7.5 22.1289 7.5 21.2109C7.5 20.293 6.71875 19.5117 5.78125 19.5117H1.69922ZM9.0625 11.5625C9.72656 12.207 10.8203 12.207 11.4648 11.5625C12.1289 10.9375 12.1289 9.80469 11.4844 9.16016L8.57422 6.23047C7.94922 5.58594 6.83594 5.56641 6.17188 6.23047C5.52734 6.875 5.52734 7.98828 6.15234 8.63281L9.0625 11.5625Z" fill="white"/>
</svg>
