<?xml version="1.0" encoding="UTF-8"?>
<!--Generator: Apple Native CoreSVG 175.5-->
<!DOCTYPE svg
PUBLIC "-//W3C//DTD SVG 1.1//EN"
       "http://www.w3.org/Graphics/SVG/1.1/DTD/svg11.dtd">
<svg version="1.1" xmlns="http://www.w3.org/2000/svg" xmlns:xlink="http://www.w3.org/1999/xlink" width="28.8477" height="28.8867">
 <g>
  <rect height="28.8867" opacity="0" width="28.8477" x="0" y="0"/>
  <path d="M28.8477 21.6016L28.8281 1.95312C28.8281 0.839844 28.1055 0.0585938 26.9336 0.0585938L7.28516 0.0585938C6.19141 0.0585938 5.44922 0.898438 5.44922 1.83594C5.44922 2.77344 6.28906 3.57422 7.20703 3.57422L14.0039 3.57422L23.5352 3.26172L19.9023 6.44531L0.546875 25.8398C0.195312 26.1914 0 26.6406 0 27.0703C0 28.0078 0.839844 28.8867 1.81641 28.8867C2.26562 28.8867 2.69531 28.7305 3.04688 28.3594L22.4414 8.98438L25.6641 5.33203L25.3125 14.4531L25.3125 21.6797C25.3125 22.5977 26.1133 23.457 27.0703 23.457C28.0078 23.457 28.8477 22.6562 28.8477 21.6016Z" fill="#000000"/>
 </g>
</svg>
