<?xml version="1.0" encoding="UTF-8"?>
<!--Generator: Apple Native CoreSVG 175.5-->
<!DOCTYPE svg
PUBLIC "-//W3C//DTD SVG 1.1//EN"
       "http://www.w3.org/Graphics/SVG/1.1/DTD/svg11.dtd">
<svg version="1.1" xmlns="http://www.w3.org/2000/svg" xmlns:xlink="http://www.w3.org/1999/xlink" width="36.2695" height="29.6289">
 <g>
  <rect height="29.6289" opacity="0" width="36.2695" x="0" y="0"/>
  <path d="M0 14.8047C0 15.293 0.214844 15.7422 0.605469 16.1133L13.5742 29.0625C13.9648 29.4336 14.375 29.6094 14.8438 29.6094C15.8008 29.6094 16.5625 28.9062 16.5625 27.9297C16.5625 27.4609 16.3867 26.9922 16.0742 26.6992L11.6992 22.2461L3.96484 15.1953L3.55469 16.1523L9.84375 16.543L34.5508 16.543C35.5664 16.543 36.2695 15.8203 36.2695 14.8047C36.2695 13.7891 35.5664 13.0664 34.5508 13.0664L9.84375 13.0664L3.55469 13.457L3.96484 14.4336L11.6992 7.36328L16.0742 2.91016C16.3867 2.59766 16.5625 2.14844 16.5625 1.67969C16.5625 0.703125 15.8008 0 14.8438 0C14.375 0 13.9648 0.15625 13.5352 0.585938L0.605469 13.4961C0.214844 13.8672 0 14.3164 0 14.8047Z" fill="#000000"/>
 </g>
</svg>
