<?xml version="1.0" encoding="UTF-8"?>
<!--Generator: Apple Native CoreSVG 175.5-->
<!DOCTYPE svg
PUBLIC "-//W3C//DTD SVG 1.1//EN"
       "http://www.w3.org/Graphics/SVG/1.1/DTD/svg11.dtd">
<svg version="1.1" xmlns="http://www.w3.org/2000/svg" xmlns:xlink="http://www.w3.org/1999/xlink" width="29.6094" height="36.8945">
 <g>
  <rect height="36.8945" opacity="0" width="29.6094" x="0" y="0"/>
  <path d="M14.8047 36.8945C15.8203 36.8945 16.543 36.1914 16.543 35.1758L16.543 9.45312L16.3477 3.63281L15.2344 4.02344L22.2461 11.6992L26.6992 16.0742C27.0117 16.3867 27.4609 16.543 27.9297 16.543C28.9062 16.543 29.6094 15.8008 29.6094 14.8438C29.6094 14.375 29.4531 13.9648 29.082 13.5742L16.1133 0.585938C15.7422 0.195312 15.293 0 14.8047 0C14.3164 0 13.8672 0.195312 13.4961 0.585938L0.546875 13.5742C0.175781 13.9648 0 14.375 0 14.8438C0 15.8008 0.703125 16.543 1.67969 16.543C2.14844 16.543 2.61719 16.3867 2.91016 16.0742L7.36328 11.6992L14.3555 4.02344L13.2617 3.63281L13.0664 9.45312L13.0664 35.1758C13.0664 36.1914 13.7891 36.8945 14.8047 36.8945Z" fill="#000000"/>
 </g>
</svg>
