<svg width="20" height="34" viewBox="0 0 20 34" fill="none" xmlns="http://www.w3.org/2000/svg">
<path d="M19.1016 16.9531C19.1016 16.4648 18.9062 16.0156 18.5352 15.6641L3.06641 0.507812C2.71484 0.175781 2.28516 0 1.77734 0C0.78125 0 0 0.761719 0 1.77734C0 2.26562 0.195312 2.71484 0.507812 3.04688L14.7266 16.9531L0.507812 30.8594C0.195312 31.1914 0 31.6211 0 32.1289C0 33.1445 0.78125 33.9062 1.77734 33.9062C2.28516 33.9062 2.71484 33.7305 3.06641 33.3789L18.5352 18.2422C18.9062 17.8711 19.1016 17.4414 19.1016 16.9531Z" fill="black" fill-opacity="0.85"/>
</svg>
