<svg width="40" height="40" viewBox="0 0 40 40" fill="none" xmlns="http://www.w3.org/2000/svg">
<path d="M30.6836 26.5234C19.9219 26.5234 13.2422 20.0391 13.2422 9.62891C13.2422 6.66016 13.7305 4.04297 14.4531 2.63672C14.7461 2.07031 14.8047 1.79688 14.8047 1.40625C14.8047 0.761719 14.1992 0 13.3789 0C13.2227 0 12.8516 0.0585938 12.3047 0.273438C5.07812 3.20312 0 10.8203 0 19.0234C0 30.8789 8.61328 39.5117 20.4688 39.5117C28.9648 39.5117 35.8594 35.0586 39.0234 27.7539C39.2578 27.2461 39.2969 26.8164 39.2969 26.6016C39.2969 25.8008 38.6133 25.2539 38.0078 25.2539C37.6953 25.2539 37.4609 25.2734 36.9922 25.4492C35.4102 26.0938 33.0273 26.5234 30.6836 26.5234ZM3.06641 18.8867C3.06641 12.8125 6.23047 7.03125 11.2891 3.84766C10.6641 5.66406 10.332 7.67578 10.332 9.90234C10.332 22.1094 17.7734 29.375 30.2344 29.375C32.2461 29.375 33.9453 29.1406 35.5664 28.5742C32.5977 33.4766 26.875 36.4648 20.5859 36.4648C10.4492 36.4648 3.06641 29.082 3.06641 18.8867Z" fill="black" fill-opacity="0.85"/>
</svg>
