<?xml version="1.0" standalone="no"?>
<!DOCTYPE svg PUBLIC "-//W3C//DTD SVG 20010904//EN"
 "http://www.w3.org/TR/2001/REC-SVG-20010904/DTD/svg10.dtd">
<svg version="1.0" xmlns="http://www.w3.org/2000/svg"
 width="700.000000pt" height="700.000000pt" viewBox="0 0 700.000000 700.000000"
 preserveAspectRatio="xMidYMid meet">
<metadata>
Created by potrace 1.14, written by Peter Selinger 2001-2017
</metadata>
<g transform="translate(0.000000,700.000000) scale(0.100000,-0.100000)"
fill="#000000" stroke="none">
<path d="M5108 6335 c-2 -1 -37 -5 -78 -9 -67 -5 -116 -12 -215 -31 -16 -3
-73 -20 -125 -37 -450 -148 -802 -476 -1060 -988 -47 -94 -57 -116 -95 -210
-26 -67 -35 -81 -41 -65 -206 558 -531 962 -942 1169 -234 118 -432 162 -722
160 -526 -3 -938 -249 -1246 -745 -187 -303 -336 -744 -410 -1219 -3 -19 -7
-46 -10 -60 -2 -14 -7 -53 -10 -86 l-6 -62 66 1 c39 0 66 5 67 11 2 24 17 132
23 163 3 11 8 43 12 70 5 26 9 50 9 53 1 3 5 23 9 45 36 184 104 408 183 600
233 566 629 927 1090 994 93 13 323 6 408 -12 709 -156 1195 -979 1262 -2135
18 -319 4 -639 -43 -962 -53 -363 -190 -778 -336 -1019 -21 -34 -38 -65 -38
-68 0 -7 -108 -158 -141 -199 -121 -147 -295 -288 -442 -358 -133 -64 -196
-83 -367 -111 -43 -6 -254 -7 -295 0 -123 20 -170 31 -245 58 -353 123 -600
422 -745 902 -37 122 -88 361 -100 470 -4 33 -9 71 -10 85 -2 14 -3 35 -4 48
-1 22 -4 23 -68 20 -65 -3 -68 -4 -67 -28 1 -13 5 -85 9 -160 9 -192 14 -281
19 -363 3 -40 8 -130 11 -202 4 -71 8 -156 10 -187 3 -32 7 -108 10 -170 3
-62 7 -142 10 -178 2 -36 7 -128 11 -205 6 -125 10 -188 13 -235 1 -12 16 -15
66 -16 40 0 65 3 66 10 0 6 2 47 4 91 5 102 21 169 46 191 28 25 95 22 156
-10 29 -14 92 -50 140 -79 146 -88 265 -145 390 -187 129 -43 145 -46 278 -65
120 -16 377 -11 485 10 252 49 464 141 662 287 105 77 296 268 376 376 126
170 237 369 317 569 l42 104 13 -33 c145 -369 297 -619 507 -834 236 -241 495
-386 814 -454 147 -32 429 -37 579 -10 591 106 1023 555 1270 1320 66 204 146
577 166 775 l6 60 -59 -2 c-32 0 -61 -2 -65 -2 -4 -1 -10 -22 -13 -48 -4 -27
-10 -70 -15 -98 -5 -27 -11 -66 -14 -85 -17 -117 -89 -400 -136 -535 -67 -190
-138 -343 -228 -490 -216 -355 -507 -583 -842 -659 -223 -51 -468 -32 -680 51
-310 123 -586 404 -766 783 -33 70 -43 91 -78 173 -53 120 -153 476 -171 607
-4 24 -8 47 -10 50 -2 3 -6 29 -10 59 -4 30 -8 62 -10 72 -2 10 -7 49 -11 86
-3 37 -8 79 -9 93 -24 193 -23 641 0 865 2 22 7 65 10 95 19 189 87 510 148
700 56 175 163 410 251 550 146 235 341 426 547 534 188 100 354 137 579 131
180 -5 282 -26 424 -85 222 -93 421 -290 550 -546 93 -184 176 -451 211 -674
11 -73 35 -254 35 -267 0 -9 19 -13 70 -13 l70 0 -4 28 c-3 15 -8 90 -11 167
-4 77 -8 160 -10 185 -2 25 -6 104 -9 175 -4 72 -9 162 -11 200 -5 72 -11 185
-20 360 -3 55 -8 134 -10 175 -2 41 -7 131 -11 200 -4 69 -8 143 -9 165 -2 22
-3 50 -4 63 -1 22 -4 23 -67 20 l-67 -3 -3 -83 c-4 -148 -28 -207 -88 -218
-45 -8 -96 12 -221 87 -275 163 -422 223 -650 264 -66 12 -318 27 -327 20z"/>
</g>
</svg>
